<svg width="50" height="50" viewBox="0 0 50 50" fill="none" xmlns="http://www.w3.org/2000/svg">
<rect x="0.5" y="0.5" width="49" height="49" fill="#FF0000" fill-opacity="0.28"/>
<path d="M20.1642 9.00253C19.3832 8.22149 18.1168 8.22149 17.3358 9.00253C16.5547 9.78358 16.5547 11.0499 17.3358 11.831L20.1642 9.00253ZM33.3333 25.0001L34.7475 26.4143C35.5286 25.6332 35.5286 24.3669 34.7475 23.5859L33.3333 25.0001ZM17.3358 38.1692C16.5547 38.9502 16.5547 40.2166 17.3358 40.9976C18.1168 41.7787 19.3832 41.7787 20.1642 40.9976L17.3358 38.1692ZM17.3358 11.831L31.9191 26.4143L34.7475 23.5859L20.1642 9.00253L17.3358 11.831ZM31.9191 23.5859L17.3358 38.1692L20.1642 40.9976L34.7475 26.4143L31.9191 23.5859Z" fill="white"/>
<rect x="0.5" y="0.5" width="49" height="49" stroke="#FF0000"/>
</svg>
